#!OML:ASF X:\für Bonn\!DataBase\2005_08_12_Daniel\c3d\Daniel.ASF
:FULLY-SPECIFIED
:DEGREES
295
root 1.49264 16.7593 0.197159 -571.653 -100.326 563.131
lowerback 15.3225 -0.478967 -4.78818
upperback 4.38828 -1.86211 -4.50678
thorax -3.93478 -1.01745 -1.69386
lowerneck -2.81204 -2.18078 -0.758891
upperneck 5.62444 -3.35855 6.73724
head 2.42747 -1.5397 2.20399
rclavicle -7.65321e-015 4.69132e-014
rhumerus -110.559 -28.2596 41.4172
rradius 9.58726
rwrist 97.6338
rhand -9.3543 723.514
rfingers 7.12502
rthumb 16.6054 -25.7955
lclavicle -7.65321e-015 4.69132e-014
lhumerus -285.098 151.508 -223.165
lradius 14.6447
lwrist -79.4225
lhand -16.2606 6.68152
lfingers 7.12502
lthumb 9.9487 36.4264
rfemur -0.440763 -1.25556 12.4744
rtibia 38.2716
rfoot -29.763 -4.47104
rtoes -12.7504
lfemur -184.975 197.382 -202.565
ltibia 40.1373
lfoot 331.539 -1.24981
ltoes -0.266563
296
root 1.51169 16.768 0.178121 -571.88 -100.258 563.385
lowerback 15.2882 -0.514242 -4.78507
upperback 4.44844 -1.90007 -4.45976
thorax -3.85091 -1.03848 -1.63972
lowerneck -2.65058 -2.12385 -0.627887
upperneck 5.79596 -3.28678 6.55808
head 2.44353 -1.50568 2.12481
rclavicle -1.0635e-014 -1.66979e-014
rhumerus -108.84 -29.8641 38.0118
rradius 9.46252
rwrist 93.4717
rhand -9.07065 723.451
rfingers 7.12502
rthumb 16.8784 -25.8356
lclavicle -1.0635e-014 -1.66979e-014
lhumerus -285.29 151.069 -223.203
lradius 14.5335
lwrist -78.6656
lhand -15.9859 7.16095
lfingers 7.12502
lthumb 10.2138 36.893
rfemur -0.45025 -1.01111 12.6316
rtibia 38.0691
rfoot -29.777 -4.74594
rtoes -12.7454
lfemur -184.919 197.707 -202.591
ltibia 39.9554
lfoot 331.485 -0.881314
ltoes -0.278533
297
root 1.53066 16.7753 0.158675 -572.052 -100.158 563.573
lowerback 15.2598 -0.539888 -4.75476
upperback 4.52411 -1.92086 -4.40426
thorax -3.75444 -1.05166 -1.59518
lowerneck -2.51798 -2.06483 -0.485139
upperneck 5.94121 -3.20973 6.36618
head 2.45565 -1.46892 2.03933
rclavicle -1.91827e-014 -7.15625e-015
rhumerus -107.047 -31.4281 34.5336
rradius 9.37306
rwrist 89.601
rhand -8.99505 723.413
rfingers 7.12502
rthumb 16.9512 -25.8677
lclavicle -1.91827e-014 -7.15625e-015
lhumerus -286.116 150.692 -224.441
lradius 14.4461
lwrist -79.1387
lhand -15.6244 7.19387
lfingers 7.12502
lthumb 10.5625 36.9085
rfemur -0.45171 -0.650768 12.8426
rtibia 37.8671
rfoot -29.8415 -5.05257
rtoes -12.7679
lfemur -184.873 197.949 -202.575
ltibia 39.8086
lfoot 331.443 -0.545281
ltoes -0.378923
298
root 1.5517 16.7814 0.138828 -572.17 -100.064 563.696
lowerback 15.2723 -0.569319 -4.69867
upperback 4.58991 -1.94698 -4.354
thorax -3.6916 -1.06688 -1.56914
lowerneck -2.38556 -2.00399 -0.298011
upperneck 6.10658 -3.13094 6.1394
head 2.47289 -1.43084 1.93476
rclavicle -1.04362e-014 3.18055e-015
rhumerus -105.116 -32.8582 30.9322
rradius 9.28503
rwrist 85.999
rhand -9.15113 723.428
rfingers 7.12502
rthumb 16.801 -25.865
lclavicle -1.04362e-014 3.18055e-015
lhumerus -287.757 150.507 -227.208
lradius 14.4106
lwrist -81.1992
lhand -15.2912 6.80879
lfingers 7.12502
lthumb 10.8839 36.5067
rfemur -0.446976 -0.306034 13.0623
rtibia 37.6753
rfoot -29.908 -5.35517
rtoes -12.7881
lfemur -184.862 198.157 -202.525
ltibia 39.6976
lfoot 331.417 -0.292635
ltoes -0.383873
299
root 1.57306 16.7869 0.117654 -572.334 -99.9564 563.885
lowerback 15.2662 -0.597767 -4.67166
upperback 4.65429 -1.97371 -4.28848
thorax -3.61862 -1.08236 -1.51089
lowerneck -2.23759 -1.93982 -0.169661
upperneck 6.23854 -3.04505 5.95734
head 2.47885 -1.39028 1.85584
rclavicle -4.37326e-014 -3.97569e-015
rhumerus -103.034 -34.2229 27.2123
rradius 9.2314
rwrist 82.6287
rhand -9.43884 723.424
rfingers 7.12502
rthumb 16.524 -25.8921
lclavicle -4.37326e-014 -3.97569e-015
lhumerus -289.496 150.333 -229.927
lradius 14.4251
lwrist -83.487
lhand -14.8249 6.34448
lfingers 7.12502
lthumb 11.3336 36.0182
rfemur -0.476631 0.102796 13.2947
rtibia 37.4931
rfoot -29.9748 -5.64915
rtoes -12.6529
lfemur -184.906 198.261 -202.442
ltibia 39.6264
lfoot 331.431 -0.0915556
ltoes -0.472049
300
root 1.59554 16.7892 0.0958265 -572.438 -99.8395 563.981
lowerback 15.2987 -0.609746 -4.60312
upperback 4.7317 -1.97643 -4.23221
thorax -3.55457 -1.08643 -1.48963
lowerneck -2.0909 -1.88593 0.0662462
upperneck 6.34333 -2.96931 5.68785
head 2.47226 -1.35478 1.72881
rclavicle -2.56432e-014 -5.56597e-014
rhumerus -100.917 -35.4468 23.4327
rradius 9.21665
rwrist 79.4573
rhand -9.85124 723.445
rfingers 7.12502
rthumb 16.1269 -25.9043
lclavicle -2.56432e-014 -5.56597e-014
lhumerus -290.799 149.905 -231.668
lradius 14.4414
lwrist -85.123
lhand -14.3075 5.87437
lfingers 7.12502
lthumb 11.8326 35.5201
rfemur -0.480098 0.497552 13.5443
rtibia 37.3285
rfoot -30.0532 -5.93306
rtoes -12.6082
lfemur -184.957 198.27 -202.308
ltibia 39.5907
lfoot 331.481 -0.0522093
ltoes -0.449999
301
root 1.61829 16.7888 0.0737707 -572.514 -99.7032 564.038
lowerback 15.3371 -0.62458 -4.52381
upperback 4.8132 -1.98133 -4.16902
thorax -3.48943 -1.09165 -1.46671
lowerneck -1.93177 -1.81991 0.254038
upperneck 6.43978 -2.87734 5.46597
head 2.46292 -1.31148 1.62687
rclavicle 4.07509e-015 9.54166e-015
rhumerus -98.6531 -36.6053 19.528
rradius 9.25174
rwrist 76.3918
rhand -10.2382 723.464
rfingers 7.12502
rthumb 15.7543 -25.9145
lclavicle 4.07509e-015 9.54166e-015
lhumerus -291.381 149.109 -231.845
lradius 14.4285
lwrist -85.583
lhand -13.8265 5.50891
lfingers 7.12502
lthumb 12.2964 35.1274
rfemur -0.48289 0.909367 13.8136
rtibia 37.1824
rfoot -30.1584 -6.20706
rtoes -12.6086
lfemur -185.01 198.24 -202.151
ltibia 39.5858
lfoot 331.547 -0.0172064
ltoes -0.472825
302
root 1.64174 16.7892 0.051158 -572.459 -99.546 563.951
lowerback 15.4042 -0.641767 -4.42653
upperback 4.89007 -1.98757 -4.08471
thorax -3.44448 -1.09697 -1.43089
lowerneck -1.7506 -1.75009 0.490366
upperneck 6.51205 -2.7728 5.15165
head 2.43864 -1.26351 1.48698
rclavicle 1.48095e-014 -6.36111e-015
rhumerus -96.2455 -37.6284 15.5079
rradius 9.33427
rwrist 73.3963
rhand -10.7583 723.618
rfingers 7.12502
rthumb 15.2533 -25.7997
lclavicle 1.48095e-014 -6.36111e-015
lhumerus -291.336 147.954 -230.704
lradius 14.4006
lwrist -85.0813
lhand -13.4119 5.25578
lfingers 7.12502
lthumb 12.6961 34.8498
rfemur -0.492631 1.33673 14.1234
rtibia 37.058
rfoot -30.2408 -6.50355
rtoes -12.5616
lfemur -185.077 198.17 -201.946
ltibia 39.6017
lfoot 331.637 -0.0233756
ltoes -0.491135
303
root 1.66619 16.7903 0.0280826 -572.354 -99.3912 563.825
lowerback 15.4765 -0.659253 -4.30975
upperback 4.95997 -1.99243 -4.00945
thorax -3.41072 -1.10126 -1.4157
lowerneck -1.58704 -1.68314 0.687747
upperneck 6.61951 -2.67726 4.90131
head 2.4326 -1.21858 1.37505
rclavicle -4.67144e-015 -1.43125e-014
rhumerus -93.7552 -38.4938 11.3908
rradius 9.50081
rwrist 70.3985
rhand -11.2024 723.924
rfingers 7.12502
rthumb 14.8255 -25.526
lclavicle -4.67144e-015 -1.43125e-014
lhumerus -290.581 146.425 -228.255
lradius 14.3843
lwrist -83.5532
lhand -13.1773 4.95297
lfingers 7.12502
lthumb 12.9223 34.5329
rfemur -0.520506 1.75358 14.4375
rtibia 36.9497
rfoot -30.3246 -6.78881
rtoes -12.4227
lfemur -185.189 198.008 -201.698
ltibia 39.644
lfoot 331.757 -0.143068
ltoes -0.49915
